<svg data-v-423bf9ae="" xmlns="http://www.w3.org/2000/svg" viewBox="0 0 204.29333504105864 60" class="font"><!----><!----><!----><g data-v-423bf9ae="" id="9d3adad6-b2f1-4489-b1f0-c39a74deeee7" fill="white" transform="matrix(4.583651255101593,0,0,4.583651255101593,-2.9335402100090135,-42.123752634169875)"><path d="M8.37 16.67L8.37 16.67Q8.37 16.24 8.23 15.91Q8.10 15.59 7.84 15.37Q7.57 15.16 7.26 15.02Q6.95 14.88 6.50 14.81L6.50 14.81Q5.70 14.69 4.71 14.69L4.71 14.69L3.17 14.69L3.17 17.34Q3.17 18.01 3.39 18.28Q3.62 18.55 4.25 18.55L4.25 18.55L5.38 18.55Q7.15 18.55 7.83 17.98L7.83 17.98Q8.37 17.53 8.37 16.67ZM0.67 10.46Q0.66 10.43 0.65 10.39Q0.64 10.34 0.64 10.21Q0.64 10.08 0.75 9.96Q0.85 9.83 1.12 9.78L1.12 9.78Q1.46 9.72 2.41 9.72L2.41 9.72L5.05 9.72Q9.18 9.72 9.18 12.10L9.18 12.10Q9.18 12.95 8.62 13.44L8.62 13.44Q8.16 13.85 7.41 14.17L7.41 14.17Q9.88 14.95 9.88 16.73L9.88 16.73Q9.88 17.46 9.52 17.98Q9.16 18.50 8.52 18.79L8.52 18.79Q7.31 19.33 5.46 19.33L5.46 19.33L2.41 19.32Q1.46 19.32 1.20 19.27L1.20 19.27Q0.66 19.13 0.64 18.70L0.64 18.70Q0.64 18.46 1.11 18.40L1.11 18.40Q1.33 18.37 1.40 18.33L1.40 18.33Q1.67 18.22 1.67 17.85L1.67 17.85L1.67 11.18Q1.67 10.69 1.16 10.62L1.16 10.62Q1.06 10.61 0.98 10.60Q0.90 10.59 0.84 10.58Q0.79 10.57 0.77 10.55Q0.75 10.54 0.71 10.52Q0.68 10.49 0.67 10.46ZM3.17 13.90L5.44 13.90Q7.10 13.90 7.61 13.07L7.61 13.07Q7.80 12.76 7.80 12.34Q7.80 11.93 7.66 11.62Q7.53 11.32 7.26 11.13Q6.99 10.94 6.69 10.81Q6.38 10.69 5.95 10.64L5.95 10.64Q5.22 10.53 4.47 10.53Q3.72 10.53 3.44 10.74Q3.17 10.95 3.17 11.52L3.17 11.52L3.17 13.90ZM12.41 19.32L12.41 19.32L11.83 19.33Q10.93 19.33 10.72 19.05L10.72 19.05Q10.62 18.93 10.62 18.75Q10.62 18.58 10.76 18.51Q10.90 18.44 11.06 18.44Q11.22 18.43 11.36 18.33Q11.50 18.23 11.50 18.01L11.50 18.01L11.50 10.79Q11.50 10.17 11.01 10.12L11.01 10.12Q10.96 10.12 10.88 10.11Q10.81 10.10 10.77 10.10Q10.74 10.10 10.69 10.09Q10.64 10.08 10.61 10.06Q10.59 10.05 10.57 10.03L10.57 10.03Q10.52 9.99 10.52 9.83Q10.52 9.67 10.73 9.50L10.73 9.50Q11.12 9.19 11.76 9.19L11.76 9.19Q12.46 9.19 12.57 9.27L12.57 9.27Q12.80 9.43 12.80 9.70L12.80 9.70L12.80 18.01Q12.80 18.41 13.24 18.43Q13.69 18.46 13.69 18.79L13.69 18.79Q13.69 19.16 13.28 19.25L13.28 19.25Q12.96 19.32 12.41 19.32ZM17.83 19.49L17.83 19.49Q16.28 19.49 15.34 18.52Q14.40 17.54 14.40 16.04L14.40 16.04Q14.40 15.05 14.90 14.27Q15.39 13.49 16.25 13.07Q17.10 12.66 18.14 12.66L18.14 12.66Q19.65 12.66 20.62 13.60Q21.60 14.53 21.60 16.02L21.60 16.02Q21.60 17.04 21.10 17.84Q20.60 18.63 19.74 19.06Q18.89 19.49 17.83 19.49ZM18.11 18.73Q19.13 18.73 19.70 18.04Q20.27 17.35 20.27 16.20Q20.27 15.05 19.61 14.22Q18.96 13.38 17.93 13.38Q16.90 13.38 16.34 14.09Q15.79 14.79 15.79 15.93Q15.79 17.08 16.44 17.90Q17.09 18.73 18.11 18.73ZM28.55 15.07L28.55 15.07Q28.55 15.69 28.08 16.16L28.08 16.16Q27.16 17.08 25.45 17.08L25.45 17.08Q25.12 17.08 24.74 17.02Q24.36 16.95 24.27 16.94L24.27 16.94L24.27 16.93Q23.75 17.37 23.75 17.70L23.75 17.70Q23.75 18.00 24.04 18.10L24.04 18.10Q24.46 18.25 25.20 18.27Q25.95 18.28 26.37 18.29Q26.78 18.30 27.27 18.33Q27.75 18.37 28.12 18.47Q28.49 18.57 28.81 18.73L28.81 18.73Q29.47 19.07 29.47 19.89L29.47 19.89Q29.47 20.51 29.15 20.98Q28.83 21.45 28.29 21.72L28.29 21.72Q27.21 22.28 25.73 22.28L25.73 22.28Q24.45 22.28 23.47 21.92L23.47 21.92Q22.94 21.73 22.63 21.36Q22.33 20.99 22.33 20.47L22.33 20.47Q22.33 19.50 23.30 18.97L23.30 18.97Q23.04 18.72 22.95 18.49Q22.86 18.27 22.86 17.96Q22.86 17.66 22.91 17.50Q22.97 17.34 23.08 17.20L23.08 17.20Q23.24 17.02 23.65 16.71L23.65 16.71Q23.00 16.39 22.66 15.99Q22.33 15.59 22.33 14.98Q22.33 14.37 22.61 13.92Q22.89 13.47 23.36 13.20L23.36 13.20Q24.30 12.66 25.46 12.66L25.46 12.66Q25.79 12.66 26.69 12.83Q27.59 13.00 27.70 13.00L27.70 13.00Q28.31 13.00 28.41 12.39L28.41 12.39Q29.29 12.39 29.29 13.08L29.29 13.08Q29.29 13.42 29.08 13.61Q28.88 13.81 28.62 13.81Q28.36 13.81 28.05 13.78L28.05 13.78Q28.25 13.95 28.40 14.31Q28.55 14.68 28.55 15.07ZM25.49 13.25Q24.75 13.25 24.24 13.68Q23.72 14.11 23.72 14.81Q23.72 15.52 24.25 15.97Q24.78 16.42 25.55 16.42Q26.31 16.42 26.79 16.00Q27.26 15.58 27.26 14.90Q27.26 14.23 26.75 13.74Q26.23 13.25 25.49 13.25ZM25.61 21.48L25.61 21.48Q26.66 21.48 27.21 21.26Q27.75 21.03 27.97 20.74Q28.18 20.45 28.18 20.05L28.18 20.05Q28.18 19.21 24.91 19.21L24.91 19.21Q23.99 19.21 23.99 19.19L23.99 19.19Q23.47 19.71 23.47 20.19L23.47 20.19Q23.47 21.48 25.61 21.48ZM36.35 15.07L36.35 15.07Q36.35 15.69 35.88 16.16L35.88 16.16Q34.96 17.08 33.25 17.08L33.25 17.08Q32.92 17.08 32.54 17.02Q32.16 16.95 32.07 16.94L32.07 16.94L32.07 16.93Q31.55 17.37 31.55 17.70L31.55 17.70Q31.55 18.00 31.84 18.10L31.84 18.10Q32.26 18.25 33.00 18.27Q33.75 18.28 34.17 18.29Q34.58 18.30 35.07 18.33Q35.55 18.37 35.92 18.47Q36.29 18.57 36.61 18.73L36.61 18.73Q37.27 19.07 37.27 19.89L37.27 19.89Q37.27 20.51 36.95 20.98Q36.63 21.45 36.09 21.72L36.09 21.72Q35.01 22.28 33.53 22.28L33.53 22.28Q32.25 22.28 31.27 21.92L31.27 21.92Q30.74 21.73 30.43 21.36Q30.13 20.99 30.13 20.47L30.13 20.47Q30.13 19.50 31.10 18.97L31.10 18.97Q30.84 18.72 30.75 18.49Q30.66 18.27 30.66 17.96Q30.66 17.66 30.71 17.50Q30.77 17.34 30.88 17.20L30.88 17.20Q31.04 17.02 31.45 16.71L31.45 16.71Q30.80 16.39 30.46 15.99Q30.13 15.59 30.13 14.98Q30.13 14.37 30.41 13.92Q30.69 13.47 31.16 13.20L31.16 13.20Q32.10 12.66 33.26 12.66L33.26 12.66Q33.59 12.66 34.49 12.83Q35.39 13.00 35.50 13.00L35.50 13.00Q36.11 13.00 36.21 12.39L36.21 12.39Q37.08 12.39 37.08 13.08L37.08 13.08Q37.08 13.42 36.88 13.61Q36.68 13.81 36.42 13.81Q36.16 13.81 35.85 13.78L35.85 13.78Q36.05 13.95 36.20 14.31Q36.35 14.68 36.35 15.07ZM33.29 13.25Q32.55 13.25 32.04 13.68Q31.52 14.11 31.52 14.81Q31.52 15.52 32.05 15.97Q32.58 16.42 33.35 16.42Q34.11 16.42 34.59 16.00Q35.06 15.58 35.06 14.90Q35.06 14.23 34.55 13.74Q34.03 13.25 33.29 13.25ZM33.41 21.48L33.41 21.48Q34.46 21.48 35.01 21.26Q35.55 21.03 35.77 20.74Q35.98 20.45 35.98 20.05L35.98 20.05Q35.98 19.21 32.71 19.21L32.71 19.21Q31.79 19.21 31.79 19.19L31.79 19.19Q31.27 19.71 31.27 20.19L31.27 20.19Q31.27 21.48 33.41 21.48ZM41.47 17.92L41.47 17.92Q43.20 14.26 43.20 14.05Q43.20 13.85 43.05 13.77Q42.90 13.69 42.72 13.67L42.72 13.67Q42.25 13.62 42.25 13.39L42.25 13.39Q42.25 12.77 43.72 12.77L43.72 12.77L43.99 12.77Q44.65 12.77 44.93 12.98Q45.21 13.19 45.21 13.38Q45.21 13.56 45.01 13.60L45.01 13.60Q44.58 13.68 44.38 13.84Q44.17 14 43.97 14.43Q43.77 14.86 43.31 15.90Q42.84 16.94 42.53 17.60L42.53 17.60L41.06 20.62Q40.82 21.11 40.46 21.43Q40.09 21.76 39.59 21.76Q39.09 21.76 38.72 21.51Q38.35 21.26 38.35 20.87Q38.35 20.47 38.59 20.24Q38.82 20.02 39.18 20.02Q39.53 20.02 39.82 20.19Q40.10 20.37 40.11 20.63L40.11 20.63Q40.66 19.76 40.84 19.28L40.84 19.28Q40.56 18.48 39.54 16.50Q38.51 14.51 38.40 14.28Q38.29 14.05 38.22 13.97Q38.14 13.88 38.01 13.82Q37.89 13.75 37.81 13.73Q37.73 13.70 37.54 13.65Q37.36 13.60 37.25 13.57Q37.13 13.54 37.13 13.36L37.13 13.36Q37.13 12.77 38.75 12.77L38.75 12.77Q39.74 12.77 40.02 12.87L40.02 12.87Q40.56 13.06 40.56 13.38L40.56 13.38Q40.56 13.59 40.15 13.67Q39.74 13.75 39.74 13.97L39.74 13.97Q39.74 13.99 39.98 14.62L39.98 14.62Q40.77 16.65 41.47 17.92Z"></path></g><!----><!----></svg>